<svg width="121" height="43" viewBox="0 0 121 43" fill="none" xmlns="http://www.w3.org/2000/svg">
<path d="M5.056 34H2.784V11.088H5.056L13.408 31.28L21.76 11.088H24.064V34H21.792V23.12C21.792 19.12 21.856 17.36 21.984 15.792L14.528 34H12.32L4.864 15.888C4.992 16.752 5.056 19.28 5.056 22.768V34ZM33.5958 34.384C30.2998 34.384 28.3478 32.528 28.3478 29.808C28.3478 26.96 30.5238 25.168 34.1398 24.88L39.2598 24.464V23.952C39.2598 20.912 37.4358 19.952 35.1638 19.952C32.4758 19.952 30.8758 21.168 30.8758 23.248H28.8598C28.8598 20.112 31.4198 18.096 35.2278 18.096C38.8118 18.096 41.4358 19.888 41.4358 23.984V34H39.5798L39.2918 31.28C38.3318 33.232 36.2198 34.384 33.5958 34.384ZM34.1078 32.592C37.3718 32.592 39.2598 30.32 39.2598 26.96V26.128L34.6838 26.48C31.7718 26.736 30.5878 28.016 30.5878 29.744C30.5878 31.632 31.9958 32.592 34.1078 32.592ZM43.9548 40.752V38.928H45.6508C46.9948 38.928 48.3388 38.832 49.1068 36.752L49.7788 34.928L43.5068 18.512H45.8428L50.8348 32.016L55.7308 18.512H58.0028L50.8988 37.552C50.0028 39.984 48.4988 40.976 46.2908 40.976C45.3628 40.976 44.6588 40.912 43.9548 40.752ZM58.966 26.256C58.966 21.52 62.294 18.096 66.838 18.096C71.382 18.096 74.71 21.52 74.71 26.256C74.71 30.96 71.382 34.384 66.838 34.384C62.294 34.384 58.966 30.96 58.966 26.256ZM61.206 26.224C61.206 29.872 63.51 32.4 66.838 32.4C70.134 32.4 72.47 29.872 72.47 26.224C72.47 22.64 70.134 20.08 66.838 20.08C63.51 20.08 61.206 22.64 61.206 26.224ZM88.7465 18.512H90.9545V34H89.0345L88.7465 31.376C87.8825 33.168 85.7385 34.384 83.3065 34.384C79.6585 34.384 77.6745 31.888 77.6745 28.112V18.48H79.9145V27.408C79.9145 31.088 81.5465 32.4 84.0105 32.4C86.9865 32.4 88.7465 30.416 88.7465 26.736V18.512Z" fill="#F5F5F5"/>
<path d="M101.216 31.796C101.276 31.892 101.3 32.012 101.252 32.144C101.216 32.288 101.144 32.42 101.06 32.552C100.868 32.828 100.652 33.116 100.424 33.38C100.004 33.872 99.584 34.364 99.164 34.844L98.552 35.54C98.492 35.612 98.444 35.684 98.384 35.756L98.276 35.888L98.252 35.924L98.276 35.948L98.768 36.296C99.152 36.584 99.524 36.848 99.884 37.124C100.04 37.232 100.184 37.376 100.34 37.568C100.376 37.616 100.46 37.748 100.34 37.892C100.304 37.952 100.232 37.976 100.16 37.976C100.1 37.976 100.04 37.952 99.968 37.916C99.86 37.832 99.764 37.748 99.668 37.652C98.84 36.8 97.772 36.092 96.32 35.432C96.176 35.372 96.02 35.336 95.864 35.312C95.792 35.3 95.72 35.288 95.648 35.264C95.552 35.252 95.48 35.18 95.456 35.096C95.432 35.012 95.444 34.928 95.504 34.88C95.552 34.82 95.648 34.772 95.72 34.772C95.852 34.772 95.984 34.808 96.104 34.856C96.416 34.988 96.728 35.132 97.028 35.276L97.112 35.312C97.232 35.372 97.352 35.432 97.46 35.492L97.616 35.564L97.64 35.576L97.652 35.564C98.516 34.976 100.112 33.248 100.652 32.324L100.664 32.288L100.628 32.276C100.616 32.264 100.592 32.252 100.58 32.24C100.532 32.216 100.484 32.18 100.436 32.18H100.424C99.02 32.264 97.376 32.384 95.792 32.696C95.564 32.744 95.336 32.804 95.12 32.876C95.024 32.9 94.928 32.936 94.832 32.96L94.748 32.984C94.7 33.008 94.664 33.02 94.616 33.032H94.592C94.496 33.032 94.388 32.936 94.352 32.828C94.316 32.72 94.352 32.612 94.448 32.564C94.532 32.504 94.664 32.48 94.76 32.456C95.888 32.18 97.064 32.048 98.204 31.904L98.504 31.868C99.02 31.796 99.572 31.736 100.292 31.664C100.448 31.652 100.604 31.64 100.76 31.64C100.82 31.64 100.88 31.64 100.928 31.64C101.048 31.652 101.156 31.712 101.216 31.796ZM108.296 31.208C108.392 31.196 108.464 31.196 108.536 31.196C108.908 31.196 108.992 31.352 108.968 31.832C108.932 32.456 108.884 33.068 108.848 33.692C108.776 34.652 108.692 35.612 108.62 36.56C108.608 36.752 108.608 36.944 108.596 37.136C108.584 37.244 108.56 37.364 108.524 37.46C108.464 37.628 108.368 37.688 108.188 37.616C107.96 37.544 107.744 37.58 107.528 37.604C106.988 37.64 106.448 37.712 105.908 37.772C105.236 37.856 105.056 37.82 104.384 37.916C104.252 37.94 104.108 37.976 103.964 38C103.784 38.036 103.628 37.94 103.616 37.784C103.604 37.652 103.7 37.532 103.892 37.508C104 37.508 104.12 37.484 104.228 37.472C104.624 37.436 105.02 37.412 105.416 37.352C106.412 37.22 106.928 37.196 107.936 37.052C107.972 37.052 108.02 37.016 108.08 36.992C108.224 36.344 108.272 35.492 108.32 34.856C108.248 34.808 108.224 34.784 108.2 34.784C107.12 34.772 106.052 34.796 104.996 34.94C104.792 34.964 104.588 35.036 104.384 35.084C104.336 35.096 104.3 35.12 104.252 35.12C104.144 35.108 104.06 35.072 104.024 34.964C103.988 34.868 104 34.772 104.084 34.712C104.18 34.664 104.288 34.616 104.396 34.592C104.9 34.532 105.404 34.472 105.92 34.424C106.7 34.352 107.48 34.292 108.26 34.22C108.284 34.22 108.32 34.196 108.344 34.184C108.476 33.632 108.56 32.144 108.476 31.664C108.224 31.688 108.008 31.688 107.78 31.7C106.796 31.796 105.812 31.868 104.828 31.976C104.576 32 104.324 32.084 104.072 32.132C104.012 32.156 103.952 32.168 103.892 32.18C103.784 32.192 103.676 32.108 103.64 31.988C103.604 31.88 103.676 31.748 103.772 31.712C103.88 31.688 103.988 31.664 104.108 31.64C104.576 31.58 105.056 31.508 105.536 31.46C106.448 31.364 107.372 31.28 108.296 31.208ZM117.452 32.324C117.764 32.36 117.908 32.54 117.848 32.852C117.824 32.996 117.776 33.128 117.716 33.26C117.56 33.596 117.392 33.92 117.212 34.244C116.588 35.36 115.82 36.38 114.932 37.316C114.68 37.58 114.392 37.808 114.104 38.024C113.972 38.132 113.804 38.204 113.636 38.264C113.54 38.312 113.42 38.396 113.336 38.276C113.252 38.156 113.372 38.084 113.456 38.012C113.54 37.916 113.636 37.832 113.744 37.76C114.608 37.064 115.352 36.248 116 35.36C116.468 34.724 116.864 34.052 117.212 33.344C117.284 33.188 117.38 33.044 117.356 32.84C117.308 32.828 117.272 32.792 117.224 32.804C115.7 32.852 114.164 32.924 112.652 33.176C112.448 33.212 112.244 33.272 112.028 33.332C111.968 33.728 112.04 34.064 112.136 34.376C112.16 34.472 112.22 34.556 112.232 34.652C112.232 34.724 112.208 34.82 112.16 34.856C112.112 34.892 112.004 34.88 111.944 34.856C111.716 34.748 111.608 34.556 111.596 34.316C111.572 33.992 111.56 33.68 111.56 33.356C111.572 32.972 111.608 32.588 111.644 32.216C111.644 32.144 111.656 32.084 111.668 32.024C111.704 31.916 111.8 31.844 111.92 31.844C112.052 31.856 112.16 31.988 112.148 32.12C112.124 32.252 112.1 32.36 112.076 32.492C112.064 32.564 112.076 32.648 112.076 32.756C112.16 32.768 112.232 32.792 112.304 32.78C113.396 32.588 114.488 32.504 115.592 32.42C116.072 32.372 116.54 32.348 117.02 32.312C117.164 32.312 117.308 32.312 117.452 32.324ZM114.392 31.712C114.296 31.352 114.248 30.992 114.056 30.668C114.008 30.584 114.056 30.488 114.14 30.416C114.176 30.392 114.224 30.368 114.284 30.368C114.344 30.368 114.404 30.392 114.44 30.428C114.476 30.452 114.512 30.488 114.536 30.536C114.656 30.908 114.788 31.28 114.908 31.664C114.92 31.7 114.92 31.748 114.932 31.82C114.908 31.868 114.908 31.928 114.884 31.988C114.836 32.12 114.668 32.156 114.572 32.036C114.5 31.94 114.428 31.82 114.392 31.712Z" fill="#F5F5F5"/>
</svg>
