<svg width="24" height="24" viewBox="0 0 24 24" fill="none" xmlns="http://www.w3.org/2000/svg">
<g clip-path="url(#clip0_6867_68)">
<path d="M12 0.75C5.787 0.75 0.75 5.787 0.75 12C0.75 18.213 5.787 23.25 12 23.25C18.213 23.25 23.25 18.213 23.25 12C23.25 5.787 18.213 0.75 12 0.75ZM18.7886 4.2465C17.7203 3.81981 16.5539 3.70094 15.4215 3.90338C15.1579 3.954 15.3495 4.75462 15.567 4.71187C17.13 4.43137 18.738 4.86188 19.9508 5.88675C20.0119 5.94 20.1266 5.89237 20.2376 5.8035C20.8939 6.67445 21.4077 7.644 21.7601 8.676C20.8988 7.296 19.3714 6.375 17.625 6.375C15.9251 6.375 14.4296 7.24612 13.557 8.56575C12.549 8.12775 11.3801 8.16788 10.4441 8.56838C9.57187 7.24725 8.07638 6.375 6.375 6.375C4.62862 6.375 3.10125 7.29637 2.24025 8.67637C2.5977 7.62964 3.1214 6.64731 3.79125 5.76713C3.8925 5.841 3.993 5.87925 4.0485 5.8305C4.64805 5.32445 5.3518 4.95681 6.10963 4.75374C6.86746 4.55067 7.66075 4.51717 8.433 4.65562C8.6505 4.698 8.8425 3.89775 8.57888 3.84713C7.48764 3.65243 6.36408 3.75608 5.32687 4.14713C7.12725 2.61488 9.45675 1.6875 12 1.6875C14.598 1.6875 16.9732 2.65538 18.7886 4.2465ZM21.375 11.25C21.375 13.3204 19.6954 15 17.625 15C15.5546 15 13.875 13.3204 13.875 11.25C13.875 9.1785 15.5546 7.5 17.625 7.5C19.6954 7.5 21.375 9.1785 21.375 11.25ZM10.1254 11.25C10.1254 13.3211 8.44575 15 6.375 15C4.30425 15 2.625 13.3211 2.625 11.25C2.625 9.1785 4.30387 7.5 6.375 7.5C8.44613 7.5 10.1254 9.1785 10.1254 11.25ZM12 22.3125C6.53888 22.3125 2.05838 18.0454 1.7115 12.6705C2.32013 14.6696 4.17712 16.125 6.375 16.125C9.0675 16.125 11.25 13.9425 11.25 11.25C11.25 10.7715 11.1784 10.3103 11.0497 9.87337C11.6235 9.70988 12.3772 9.71062 12.9503 9.87375C12.8179 10.3205 12.7504 10.784 12.75 11.25C12.75 13.9425 14.9325 16.125 17.625 16.125C19.8229 16.125 21.6799 14.6696 22.2885 12.6705C21.9416 18.0454 17.4611 22.3125 12 22.3125Z" fill="#A7A7A7"/>
<path d="M7.5 13.3125C8.32843 13.3125 9 12.473 9 11.4375C9 10.402 8.32843 9.5625 7.5 9.5625C6.67157 9.5625 6 10.402 6 11.4375C6 12.473 6.67157 13.3125 7.5 13.3125Z" fill="#A7A7A7"/>
<path d="M16.5 13.3125C17.3284 13.3125 18 12.473 18 11.4375C18 10.402 17.3284 9.5625 16.5 9.5625C15.6716 9.5625 15 10.402 15 11.4375C15 12.473 15.6716 13.3125 16.5 13.3125Z" fill="#A7A7A7"/>
<path d="M15.5266 16.9313C14.318 17.7821 12.3942 18.369 10.4041 17.8436C9.87122 17.7023 9.45347 19.0849 10.0223 19.2435C12.185 19.8248 14.5407 19.4044 16.3711 18.1133C16.823 17.7878 15.9758 16.6031 15.5266 16.9313Z" fill="#A7A7A7"/>
</g>
<defs>
<clipPath id="clip0_6867_68">
<rect width="24" height="24" fill="white"/>
</clipPath>
</defs>
</svg>
